HIERARCHY
ROOT RootJoint
{
    OFFSET   0.000000   0.000000   0.000000
    CHANNELS 6 Xposition Yposition Zposition Xrotation Yrotation Zrotation
    JOINT pelvis_lowerback
    {
        OFFSET   0.000000   0.093605   0.000000
        CHANNELS 3 Xrotation Yrotation Zrotation
        JOINT lowerback_torso
        {
            OFFSET   0.000000   0.100000   0.000000
            CHANNELS 3 Xrotation Yrotation Zrotation
            JOINT torso_head
            {
                OFFSET   0.000000   0.282350   0.000000
                CHANNELS 3 Xrotation Yrotation Zrotation
                End Site
                {
                    OFFSET   0.000000   0.192650   0.000000
                }
            }
            JOINT rTorso_Clavicle
            {
                OFFSET  -0.001000   0.157500   0.000000
                CHANNELS 3 Xrotation Yrotation Zrotation
                JOINT rShoulder
                {
                    OFFSET  -0.117647   0.000000   0.000000
                    CHANNELS 3 Xrotation Yrotation Zrotation
                    JOINT rElbow
                    {
                        OFFSET  -0.245000   0.000000   0.000000
                        CHANNELS 3 Xrotation Yrotation Zrotation
                        JOINT rWrist
                        {
                            OFFSET  -0.240000   0.000000   0.000000
                            CHANNELS 3 Xrotation Yrotation Zrotation
                            End Site
                            {
                                OFFSET  -0.116353  -0.002500   0.000000
                            }
                        }
                    }
                }
            }
            JOINT lTorso_Clavicle
            {
                OFFSET   0.001000   0.157500   0.000000
                CHANNELS 3 Xrotation Yrotation Zrotation
                JOINT lShoulder
                {
                    OFFSET   0.117647   0.000000   0.000000
                    CHANNELS 3 Xrotation Yrotation Zrotation
                    JOINT lElbow
                    {
                        OFFSET   0.245000   0.000000   0.000000
                        CHANNELS 3 Xrotation Yrotation Zrotation
                        JOINT lWrist
                        {
                            OFFSET   0.240000   0.000000   0.000000
                            CHANNELS 3 Xrotation Yrotation Zrotation
                            End Site
                            {
                                OFFSET   0.116353  -0.002500   0.000000
                            }
                        }
                    }
                }
            }
        }
    }
    JOINT rHip
    {
        OFFSET  -0.100000  -0.051395   0.000000
        CHANNELS 3 Xrotation Yrotation Zrotation
        JOINT rKnee
        {
            OFFSET   0.000000  -0.410000   0.000000
            CHANNELS 3 Xrotation Yrotation Zrotation
            JOINT rAnkle
            {
                OFFSET   0.000000  -0.390000   0.000000
                CHANNELS 3 Xrotation Yrotation Zrotation
                JOINT rToeJoint
                {
                    OFFSET   0.000000  -0.050000   0.130000
                    CHANNELS 3 Xrotation Yrotation Zrotation
                    End Site
                    {
                        OFFSET  -0.010000   0.002000   0.060000
                    }
                }
            }
        }
    }
    JOINT lHip
    {
        OFFSET   0.100000  -0.051395   0.000000
        CHANNELS 3 Xrotation Yrotation Zrotation
        JOINT lKnee
        {
            OFFSET   0.000000  -0.410000   0.000000
            CHANNELS 3 Xrotation Yrotation Zrotation
            JOINT lAnkle
            {
                OFFSET   0.000000  -0.390000   0.000000
                CHANNELS 3 Xrotation Yrotation Zrotation
                JOINT lToeJoint
                {
                    OFFSET   0.000000  -0.050000   0.130000
                    CHANNELS 3 Xrotation Yrotation Zrotation
                    End Site
                    {
                        OFFSET   0.010000   0.002000   0.060000
                    }
                }
            }
        }
    }
}
MOTION
Frames: 17
Frame Time:   0.008333
 -2.376719   0.925631   3.975860   0.000000   0.000000   0.000000   0.000000   0.000000   0.000000   0.000000   0.000000   0.000000   0.000000   0.000000   0.000000   0.000000   0.000000   0.000000   0.000000   0.000000   0.000000   0.000000   0.000000   0.000000   0.000000   0.000000   0.000000   0.000000   0.000000   0.000000   0.000000   0.000000   0.000000   0.000000   0.000000   0.000000   0.000000   0.000000   0.000000   0.000000   0.000000   0.000000   0.000000   0.000000   0.000000   0.000000   0.000000   0.000000   0.000000   0.000000   0.000000   0.000000   0.000000   0.000000   0.000000   0.000000   0.000000   0.000000   0.000000   0.000000   0.000000   0.000000   0.000000
 -2.376409   0.926114   3.975990  -0.357337  -0.116906   0.129163   0.388136   0.046170  -0.111563   0.067122  -0.148720  -0.003748  -0.175456   0.129066   0.069024   0.081417  -0.346882   0.193806   0.758912   0.464786   2.118750   0.035570   1.734890  -0.014689   0.213841  -0.854367  -2.601207   0.230373   0.346772  -0.246526   0.817605   0.016513  -2.144949   0.023422  -1.123877   0.011439   0.217062   0.437408   2.726240   0.262456   0.245210  -0.281775   0.355969   0.000474   0.000399  -0.452427  -0.140312  -0.085369   0.045874   0.000095  -0.000004   0.118958  -0.086883  -0.087175   1.073225  -0.000417  -0.001901  -1.040345   0.169524   0.332730   0.127401  -0.000415  -0.000037
 -2.376011   0.926958   3.976208  -0.756720  -0.351425   0.268098   0.740745   0.117892  -0.211385   0.162962  -0.258626  -0.012633  -0.329099   0.248017   0.141878   0.162016  -0.568874   1.057989   1.477044   1.071660   4.770900   0.082617   3.440670  -0.024940   0.462142  -1.113151  -4.516008   0.461764   0.625961  -1.196188   1.620180  -0.049931  -4.855488   0.053729  -2.214418   0.019774   0.470239   0.564809   4.733678   0.542085   0.481675  -0.672422   0.743863   0.001225   0.000319  -0.876033  -0.271697  -0.166883   0.064577   0.000130  -0.000024   0.308626  -0.168817  -0.119092   2.236535  -0.001578  -0.004676  -2.011236   0.324720   0.647716   0.201820  -0.000607  -0.000132
 -2.375586   0.927772   3.976489  -1.141354  -0.646201   0.397336   1.047541   0.199071  -0.296052   0.239761  -0.341273  -0.019378  -0.476992   0.357647   0.213511   0.237314  -0.700594   2.338365   2.145923   1.767270   7.770471   0.129024   5.057206  -0.030970   0.711128  -1.137877  -5.652057   0.683188   0.832834  -2.573302   2.401854  -0.196797  -7.930774   0.083406  -3.246849   0.025363   0.719448   0.558345   5.934378   0.801169   0.695476  -1.127924   1.110767   0.002005  -0.000022  -1.272009  -0.395436  -0.244612   0.075230   0.000141  -0.000038   0.528029  -0.245962  -0.083571   3.361143  -0.003197  -0.007247  -2.916514   0.464845   0.944603   0.267872  -0.000756  -0.000237
 -2.375160   0.928279   3.976821  -1.500771  -0.968153   0.513612   1.316279   0.279302  -0.368901   0.294140  -0.410791  -0.022105  -0.621620   0.459390   0.282339   0.309601  -0.778626   3.859547   2.764554   2.528585  11.004478   0.169198   6.577209  -0.033972   0.953312  -1.064604  -6.204376   0.893239   0.985149  -4.190362   3.162345  -0.417869 -11.247940   0.109055  -4.220064   0.029029   0.961884   0.478262   6.540845   1.035757   0.889336  -1.627803   1.449471   0.002704  -0.000427  -1.642647  -0.511687  -0.318613   0.078460   0.000125  -0.000038   0.760792  -0.317731   0.012586   4.425817  -0.004981  -0.009214  -3.762142   0.591645   1.224122   0.323550  -0.000850  -0.000316
 -2.374744   0.928271   3.977197  -1.834335  -1.301943   0.617062   1.554262   0.353358  -0.432157   0.331007  -0.475041  -0.020651  -0.761639   0.554054   0.347533   0.380580  -0.826842   5.503567   3.331748   3.340186  14.395720   0.200907   8.000373  -0.034896   1.184278  -0.953820  -6.357213   1.090891   1.098352  -5.923886   3.899892  -0.705902 -14.723980   0.129335  -5.134707   0.031372   1.196151   0.355472   6.747813   1.247348   1.066260  -2.158434   1.761512   0.003282  -0.000810  -1.989505  -0.620617  -0.388938   0.076219   0.000091  -0.000025   0.999865  -0.383924   0.159478   5.428498  -0.006717  -0.010535  -4.552312   0.706595   1.487053   0.370076  -0.000896  -0.000365
 -2.374344   0.927598   3.977610  -2.143474  -1.642000   0.708613   1.767201   0.419028  -0.487169   0.355484  -0.537904  -0.015286  -0.895730   0.642246   0.408811   0.451565  -0.859707   7.191598   3.846193   4.191386  17.891928   0.223831   9.329402  -0.034432   1.401732  -0.836471  -6.248827   1.275610   1.183739  -7.693053   4.612056  -1.054449 -18.303131   0.144076  -5.992457   0.032804   1.421017   0.209107   6.698092   1.437789   1.228570  -2.709329   2.049411   0.003727  -0.001145  -2.313968  -0.722512  -0.455660   0.070335   0.000046  -0.000006   1.241519  -0.444722   0.347270   6.371183  -0.008273  -0.011309  -5.290635   0.810926   1.734198   0.409219  -0.000905  -0.000389
 -2.374063   0.925606   3.977625  -2.154840  -2.081128   0.659861   1.721898   0.546113  -0.361099   0.373195  -0.561856  -0.031098  -1.140621   0.642102   0.440990   0.681662  -0.790406   8.191949   4.663681   5.137036  21.465448   0.243264  10.799318  -0.042099   1.540483  -0.758614  -5.264199   1.565248   1.229483  -8.702166   5.037839  -1.383050 -22.064914   0.160056  -7.054529   0.034728   1.569582   0.049967   5.693978   1.119964   1.289040  -3.034767   2.657201   0.004852  -0.003131  -2.640790  -0.907435  -0.283597   0.084528   0.000062  -0.000076   1.381021  -0.369185   0.663878   6.429118  -0.006786  -0.009209  -5.540393   0.941727   2.018297   0.526053  -0.001307  -0.000535
 -2.373818   0.922476   3.977423  -2.132145  -2.453096   0.588579   1.708217   0.642240  -0.222408   0.380745  -0.595681  -0.025584  -1.381719   0.637304   0.469299   0.883959  -0.682207   8.995039   5.365851   6.094549  24.718443   0.249633  12.189716  -0.047085   1.699349  -0.577885  -4.258807   1.818553   1.227485  -9.489678   5.404221  -1.742215 -25.483306   0.165746  -8.064371   0.035837   1.719200  -0.218584   4.695309   0.769039   1.334275  -3.286886   3.232888   0.005396  -0.004371  -2.943151  -1.083144  -0.123834   0.106413   0.000081  -0.000161   1.461559  -0.300346   0.968858   6.351117  -0.005230  -0.007188  -5.778214   1.062807   2.284625   0.647220  -0.001588  -0.000602
 -2.373680   0.921371   3.977291  -2.185683  -2.773040   0.082521   1.759445   0.727417   0.260302   0.425321  -0.631423   0.141063  -1.602807   0.632721   0.507651   1.060854  -0.552955   9.807092   5.964531   7.033257  27.723651   0.249254  13.484133  -0.049453   1.855881  -0.399246  -3.452887   2.036825   1.188364 -10.348635   5.713626  -2.123851 -28.698162   0.166448  -9.013412   0.036055   1.866585  -0.510245   3.873005   0.318416   1.291522  -2.814039   4.012564   0.004357  -0.006252  -2.721508  -1.315950   0.182874   0.182005  -0.000108  -0.000542   1.593109  -0.240742   1.630622   6.243039  -0.003986  -0.005519  -5.994673   1.177843   2.535838   0.815681  -0.001887  -0.000684
 -2.373187   0.920602   3.977287  -2.236562  -2.994279  -0.253307   1.800864   0.778695   0.566531   0.473148  -0.687684   0.279924  -1.802905   0.627317   0.550226   1.230541  -0.433246  10.528879   6.479148   7.943355  30.537228   0.242646  14.699597  -0.050046   2.004595  -0.198526  -2.642526   2.230254   1.135816 -11.048518   5.978724  -2.505686 -31.658620   0.162161  -9.907186   0.035246   2.008826  -0.835281   3.083815  -0.045468   1.294925  -2.525204   4.720112   0.003627  -0.006540  -2.753936  -1.483915   0.374034   0.244706  -0.000163  -0.000657   1.672886  -0.184328   1.998166   6.135833  -0.003124  -0.004264  -6.200028   1.282721   2.769996   0.953551  -0.001837  -0.000604
 -2.372401   0.920505   3.977544  -2.293313  -3.238809  -0.239730   1.829882   0.847601   0.591932   0.519346  -0.728275   0.297327  -1.987353   0.623046   0.575707   1.391502  -0.318781  11.220972   6.918406   8.819663  33.174323   0.231947  15.836843  -0.049057   2.146674   0.007211  -1.876004   2.410892   1.093638 -11.636314   6.212075  -2.863449 -34.363685   0.154381 -10.737450   0.033587   2.142001  -1.138758   2.415165  -0.290235   1.331504  -2.622374   5.283919   0.003177  -0.006389  -2.947424  -1.623660   0.506403   0.297985  -0.000155  -0.000695   1.704597  -0.097785   1.895447   6.273982  -0.002435  -0.003602  -6.178459   1.392228   2.959420   1.065145  -0.001583  -0.000531
 -2.371601   0.920447   3.977911  -2.316692  -3.455056  -0.209516   1.834718   0.910378   0.639694   0.546258  -0.765375   0.297612  -2.161753   0.618941   0.588511   1.540932  -0.215598  11.799928   7.293858   9.651731  35.605156   0.218060  16.900374  -0.047080   2.280675   0.216301  -1.163666   2.580809   1.060513 -12.123047   6.418084  -3.200884 -36.860939   0.144292 -11.512726   0.031426   2.266381  -1.429258   1.820821  -0.510680   1.374128  -2.732627   5.761694   0.002774  -0.005939  -3.165632  -1.749661   0.615348   0.333683  -0.000135  -0.000654   1.739269  -0.002005   1.779379   6.360909  -0.001904  -0.002975  -6.266300   1.510392   3.150824   0.969591  -0.001170  -0.000427
 -2.370830   0.920419   3.978250  -2.311500  -3.669351  -0.155202   1.847882   0.986878   0.667762   0.550373  -0.723948   0.330296  -2.305325   0.537409   0.554232   1.672574  -0.119539  12.001867   7.651972  10.420360  37.541640   0.195204  17.785259  -0.044488   2.388441   0.602539   0.162683   2.740702   1.013771 -12.199950   6.528500  -3.573862 -39.035379   0.133875 -12.432388   0.029563   2.328789  -1.639496   0.682017  -0.805177   1.404225  -2.859216   6.343796   0.002470  -0.005825  -3.547155  -1.808713   0.691765   0.425524  -0.000115  -0.000732   1.822661   0.095588   1.639422   6.286119  -0.001562  -0.002301  -6.304155   1.626719   3.366585   0.989649  -0.000960  -0.000341
 -2.370147   0.920402   3.978607  -2.279784  -3.826826  -0.084357   1.856298   1.044308   0.696269   0.537433  -0.696371   0.359992  -2.435074   0.460901   0.522253   1.767044  -0.032835  11.936541   7.964244  11.123991  39.166393   0.171220  18.605759  -0.041453   2.490824   0.949447   1.243314   2.866167   0.955606 -12.035404   6.607887  -3.926169 -40.901678   0.120240 -13.302928   0.027303   2.387634  -1.913449  -0.234913  -1.093869   1.432939  -2.991206   6.881384   0.002183  -0.005387  -3.922136  -1.863149   0.757978   0.502304  -0.000097  -0.000719   1.898819   0.183353   1.495737   6.162826  -0.001311  -0.001761  -6.361132   1.733177   3.568829   1.072679  -0.000863  -0.000240
 -2.369578   0.920393   3.978998  -2.226952  -3.936745  -0.006785   1.859072   1.084323   0.728498   0.509892  -0.685210   0.387788  -2.554579   0.389942   0.493831   1.832329   0.042156  11.694478   8.237615  11.768976  40.550699   0.148100  19.368966  -0.038162   2.588389   1.258281   2.030965   2.968588   0.893810 -11.711108   6.666999  -4.250566 -42.519318   0.105481 -14.117404   0.024859   2.444060  -2.191599  -0.879677  -1.368610   1.462218  -3.117515   7.368117   0.001908  -0.004755  -4.282078  -1.913775   0.817216   0.572203  -0.000084  -0.000665   1.963511   0.268067   1.359966   6.013836  -0.001115  -0.001371  -6.430172   1.834946   3.757721   1.167881  -0.000796  -0.000120
 -2.369135   0.920400   3.979433  -2.159031  -4.012187   0.066362   1.857194   1.111998   0.769686   0.471880  -0.685476   0.417522  -2.665460   0.323915   0.468469   1.876415   0.106273  11.337682   8.479581  12.360296  41.745134   0.126831  20.078305  -0.034797   2.682180   1.530783   2.585275   3.054693   0.833202 -11.284550   6.711796  -4.547210 -43.937076   0.090959 -14.877302   0.022385   2.498355  -2.453801  -1.306444  -1.630828   1.491196  -3.227116   7.814341   0.001647  -0.004070  -4.619579  -1.961165   0.871990   0.636067  -0.000076  -0.000592   2.020848   0.347379   1.242280   5.848166  -0.000955  -0.001098  -6.508665   1.929700   3.934639   1.254835  -0.000732  -0.000012
